<svg width="24" height="24" viewBox="0 0 24 24" fill="none" xmlns="http://www.w3.org/2000/svg">
<path d="M12.1031 17.343C12.2992 17.2703 12.5183 17.2822 12.7067 17.3791L19.358 20.8C19.3848 20.8135 19.4179 20.8119 19.443 20.7971C19.4669 20.7828 19.4762 20.7616 19.4762 20.7453V4.12909C19.4762 3.6226 19.0591 3.19079 18.5192 3.19061H6.20862C5.68791 3.19061 5.28063 3.59215 5.25256 4.0744L5.25159 4.14666V20.7453C5.25159 20.7616 5.26017 20.7829 5.28381 20.7971C5.30902 20.8121 5.34285 20.8137 5.36975 20.8L12.0211 17.3791L12.1031 17.343ZM20.9762 20.7453C20.9762 21.2292 20.7507 21.6783 20.3785 21.9709L20.2106 22.0861C19.7406 22.3658 19.1576 22.3838 18.6715 22.134L12.3629 18.8889L6.0553 22.134C5.56934 22.3836 4.98706 22.3656 4.51721 22.0861C4.04574 21.8055 3.75159 21.2982 3.75159 20.7453V4.11151L3.75354 4.02459L3.75452 4.00409C3.82022 2.72076 4.88769 1.69061 6.20862 1.69061H18.5192C19.8825 1.69079 20.9762 2.78916 20.9762 4.12909V20.7453Z" fill="#004D8A"/>
<path d="M16.7117 11C17.0719 11 17.3639 11.4477 17.3639 12C17.3639 12.5523 17.0719 13 16.7117 13H8.01607C7.65589 13 7.36389 12.5523 7.36389 12C7.36389 11.4477 7.65589 11 8.01607 11H16.7117Z" fill="#004D8A"/>
</svg>
