<svg width="24" height="24" viewBox="0 0 24 24" fill="none" xmlns="http://www.w3.org/2000/svg">
<path d="M17.1797 1.82324C17.5985 1.82351 17.9393 2.16286 17.9395 2.58203V4.64844H20.0049C20.4237 4.6487 20.7645 4.98811 20.7646 5.40723V21.417C20.7646 21.8361 20.424 22.1765 20.0049 22.1768H6.82031C6.40103 22.1766 6.06152 21.8361 6.06152 21.417V19.3516H3.99512C3.57578 19.3514 3.23535 19.0109 3.23535 18.5918V3.05273C3.23559 2.37372 3.78681 1.82348 4.46582 1.82324H17.1797ZM7.58008 20.6582H19.2461V6.16699H7.58008V20.6582ZM4.75391 17.833H6.06152V5.40723L6.06543 5.33008C6.10429 4.94728 6.42734 4.64862 6.82031 4.64844H16.4209V3.34082H4.75391V17.833ZM16.2383 14.0664C16.6573 14.0667 16.9971 14.4061 16.9971 14.8252C16.997 15.2443 16.6573 15.5837 16.2383 15.584H10.5879C10.1686 15.584 9.82914 15.2445 9.8291 14.8252C9.8291 14.4059 10.1686 14.0664 10.5879 14.0664H16.2383ZM16.2383 10.2988C16.6572 10.2991 16.9968 10.6388 16.9971 11.0576L16.9932 11.1348C16.9545 11.5176 16.6315 11.8171 16.2383 11.8174H10.5879C10.1945 11.8174 9.87169 11.5178 9.83301 11.1348L9.8291 11.0576C9.8294 10.6387 10.1687 10.2988 10.5879 10.2988H16.2383Z" fill="#004D8A"/>
</svg>
