<svg width="24" height="20" viewBox="0 0 24 20" fill="none" xmlns="http://www.w3.org/2000/svg">
<path d="M5.59997 10.9833V12.2961L8.63991 9.99862L5.59997 7.86523V9.09603H0.800049V10.9833H5.59997Z" fill="#8D8D8D"/>
<path d="M18.4 10.9833V12.2961L15.3601 9.99862L18.4 7.86523V9.09603H23.2V10.9833H18.4Z" fill="#8D8D8D"/>
<path d="M12.0002 3.60156C13.8556 3.60178 15.3594 5.1056 15.3596 6.96094V13.042C15.3595 14.8974 13.8556 16.4011 12.0002 16.4014C10.1447 16.4014 8.64003 14.8975 8.63989 13.042V6.96094C8.64009 5.10546 10.1447 3.60156 12.0002 3.60156ZM12.0002 5.57031C11.0283 5.57031 10.2406 6.35817 10.2405 7.33008V12.6719C10.2405 13.6439 11.0282 14.4316 12.0002 14.4316C12.9721 14.4315 13.76 13.6438 13.76 12.6719V7.33008C13.7599 6.35826 12.9721 5.57047 12.0002 5.57031Z" fill="#8D8D8D"/>
</svg>
